<?xml version="1.0" encoding="UTF-8" standalone="no"?>
<svg
   version="1.1"
   width="595.27557"
   height="841.88977"
   id="svg19"
   viewBox="0 0 595.27557 841.88977"
   sodipodi:docname="DOPOS CDR logo.cdr"
   xmlns:inkscape="http://www.inkscape.org/namespaces/inkscape"
   xmlns:sodipodi="http://sodipodi.sourceforge.net/DTD/sodipodi-0.dtd"
   xmlns="http://www.w3.org/2000/svg"
   xmlns:svg="http://www.w3.org/2000/svg">
  <defs
     id="defs23" />
  <sodipodi:namedview
     id="namedview21"
     pagecolor="#ffffff"
     bordercolor="#666666"
     borderopacity="1.0"
     inkscape:pageshadow="2"
     inkscape:pageopacity="0.0"
     inkscape:pagecheckerboard="0" />
  <g
     id="Layer1000">
    <path
       d="m 244.4324,271.8898 41.0998,41.0982 41.1015,-41.0982 -41.1015,-41.1015 z"
       style="fill:#1b1918;fill-rule:evenodd"
       id="path2" />
    <path
       d="m 212.8626,419.5885 h -5.9569 v 35.0571 h 7.8204 c 15.0978,0 19.1911,-10.1846 19.1911,-17.0553 0,-0.5688 -0.047,-1.0874 -0.0923,-1.5606 -1.0906,-13.5519 -10.8685,-16.4412 -20.9623,-16.4412 z m 0.3629,6.3004 c 0.5008,-0.0486 1.0015,-0.0486 1.4552,-0.0486 8.9596,0 12.9151,4.9764 12.9151,11.4178 0,8.1509 -5.6392,11.0418 -13.0058,11.0418 -0.5007,0 -0.9545,-0.0486 -1.4552,-0.0486 z m 23.7836,11.8456 c 0,7.1997 5.0931,17.5836 17.2336,17.7716 12.732,0 17.5075,-11.8035 17.7814,-17.0635 0,-0.3306 0.0437,-0.6628 0.0437,-0.9933 0,-9.8541 -7.8203,-18.5252 -17.4605,-18.5252 -8.2757,0 -17.5982,6.3004 -17.5982,18.8104 z m 6.1383,-0.2852 c 0,-8.4815 6.9129,-12.2248 11.8229,-12.2248 6.6844,0.3808 10.8231,5.973 10.8231,12.0336 -0.2723,6.7297 -5.3216,11.9395 -11.4599,11.9395 -4.2732,0 -10.9122,-4.0722 -11.1861,-11.7483 z m 33.7397,17.1963 h 6.2306 v -13.3121 h 4.0933 c 7.1852,0 10.7307,-4.4546 11.1861,-10.5638 0,-5.1174 -2.5474,-11.1812 -12.322,-11.1812 h -9.188 z m 6.2306,-19.6124 v -9.1443 h 3.2734 c 2.7742,0.0956 5.7753,0.8054 5.7753,4.5 -0.0907,3.2701 -3.0011,4.4547 -5.8661,4.6443 z m 17.5983,2.7013 c 0,7.1997 5.0915,17.5836 17.2336,17.7716 12.732,0 17.5075,-11.8035 17.7797,-17.0635 0,-0.3306 0.047,-0.6628 0.047,-0.9933 0,-9.8541 -7.822,-18.5252 -17.4637,-18.5252 -8.2757,0 -17.5966,6.3004 -17.5966,18.8104 z m 6.1383,-0.2852 c 0,-8.4815 6.9129,-12.2248 11.8245,-12.2248 6.6828,0.3808 10.8215,5.973 10.8215,12.0336 -0.2723,6.7297 -5.3216,11.9395 -11.4583,11.9395 -4.2748,0 -10.9155,-4.0722 -11.1877,-11.7483 z m 32.513,-8.5285 c 0.6822,12.2247 14.5971,9.1912 14.5971,15.255 0,0.5202 -0.1377,1.1376 -0.3646,1.849 -0.6352,1.7501 -2.6835,3.0788 -4.8209,3.1728 -1.9543,-0.094 -3.8194,-1.3271 -4.0917,-4.3574 h -6.5482 c 0.1831,6.0168 4.957,10.6659 11.0061,10.6659 5.1823,-0.188 10.8215,-3.7044 10.8215,-11.7095 -0.4554,-11.3708 -13.7788,-8.859 -14.3703,-14.4966 0,-2.6544 1.6837,-3.9783 3.5488,-3.9783 1.6821,0 3.2734,1.0874 3.6364,3.5991 h 6.4121 c -0.7276,-8.9515 -7.7312,-9.9967 -9.8686,-9.9967 -5.4561,0 -9.9577,4.1225 -9.9577,9.9967 z m 37.5591,-9.3323 v 35.0571 h 6.2306 v -14.7332 h 12.0968 v 14.7332 h 6.1837 v -35.0571 h -6.1837 V 433.659 H 383.157 v -14.0705 z m 30.9216,0 v 35.0571 h 6.2307 V 439.201 l 10.5039,15.4446 h 7.4573 l -12.7319,-17.8591 12.7319,-17.198 h -7.4573 l -10.5039,15.2551 v -15.2551 z"
       style="fill:#1b1918;fill-rule:evenodd"
       id="path4" />
    <path
       d="m 183.9114,332.4076 41.0998,41.1014 41.0998,-41.1014 -41.0998,-41.0998 z"
       style="fill:#e30016;fill-rule:evenodd"
       id="path6" />
    <path
       d="m 387.1061,332.4076 -41.0998,41.1014 -41.0998,-41.1014 41.0998,-41.0998 z"
       style="fill:#e30016;fill-rule:evenodd"
       id="path8" />
    <path
       d="m 123.3903,392.9303 41.0998,41.0998 41.1014,-41.0998 -41.1014,-41.1014 z"
       style="fill:#009ee0;fill-rule:evenodd"
       id="path10" />
    <path
       d="m 447.6272,392.9303 h -82.2013 l 41.1015,-41.0998 z"
       style="fill:#009ee0;fill-rule:evenodd"
       id="path12" />
    <path
       d="m 62.8709,453.4497 h 82.1996 l -41.0998,-41.1014 z"
       style="fill:#1b1918;fill-rule:evenodd"
       id="path14" />
    <path
       d="m 450.8146,402.2933 c -0.431,0.2172 -0.9885,0.5461 -1.5264,0.9464 -1.1473,1.1181 -2.0888,2.9119 -1.4487,5.2649 0.5347,2.1924 2.267,4.7641 1.1035,5.8126 -0.8929,0.8021 -2.0337,0.5833 -2.8326,-0.2058 -0.5493,-0.7098 -0.7681,-1.8506 0.0827,-3.0481 l -2.8699,-3.1859 c -2.3788,2.4421 -2.7985,5.3622 -1.5653,7.438 0.3289,0.5671 0.687,1.0614 1.1148,1.5378 2.9558,3.283 6.9097,2.4339 9.5365,0.0697 2.8487,-3.1664 -0.2318,-7.284 -0.5834,-8.4751 -0.3063,-0.8864 -0.1669,-1.5297 0.1864,-1.9332 0.713,-0.5558 1.7193,-0.384 2.2751,0.235 0.4926,0.5461 0.6919,1.3142 0.2333,2.199 l 2.7192,3.0221 c 2.4615,-2.301 2.2427,-5.9811 0.2933,-8.1444 -1.392,-1.5459 -4.0641,-2.6722 -6.7185,-1.533 z m -1.2866,21.1454 2.8488,3.1648 3.296,-2.9687 -2.8488,-3.1631 z m 5.61,6.2323 2.8504,3.1648 7.5076,-6.7606 c 2.7516,-2.4776 4.1954,-1.9688 6.067,-0.3403 l 3.1972,-2.8763 c -1.3061,-1.4535 -2.7045,-1.9575 -4.5405,-1.5556 l 1.2639,-1.1376 -2.5911,-2.8796 z m 7.4331,8.2531 2.8488,3.1647 3.296,-2.9687 -2.8488,-3.1631 z m 18.4538,-3.1761 c -2.7693,0.1669 -4.8322,1.1635 -6.4851,2.5652 -3.9782,3.7546 -4.5583,9.747 -1.003,13.6945 3.4694,3.8535 9.6677,4.0009 13.6815,0.3873 3.8908,-3.5051 4.3267,-9.7957 0.9853,-13.5082 -1.5411,-1.7112 -3.9734,-2.9687 -7.1787,-3.1388 z m 0.06,4.2537 c 1.4811,0 2.7807,0.5963 3.7027,1.6188 2.0127,2.2346 1.6351,5.5047 -0.6449,7.5562 -2.3059,2.0759 -5.3362,2.0467 -7.4914,-0.1458 -1.8279,-2.2281 -1.4325,-5.4286 0.6368,-7.4639 1.1571,-0.9577 2.5604,-1.4454 3.7968,-1.5653 z m 1.1894,20.8067 2.8488,3.1632 3.296,-2.9671 -2.8488,-3.1648 z"
       style="fill:#1b1918;fill-rule:evenodd"
       id="path16" />
  </g>
</svg>
