<?xml version="1.0" encoding="UTF-8" standalone="no"?>
<!DOCTYPE svg PUBLIC "-//W3C//DTD SVG 1.1//EN" "http://www.w3.org/Graphics/SVG/1.1/DTD/svg11.dtd">
<!-- Created with Vectornator (http://vectornator.io/) -->
<svg height="100%" stroke-miterlimit="10" style="fill-rule:nonzero;clip-rule:evenodd;stroke-linecap:round;stroke-linejoin:round;" version="1.1" viewBox="0 0 801.953 537" width="100%" xml:space="preserve" xmlns="http://www.w3.org/2000/svg" xmlns:vectornator="http://vectornator.io" xmlns:xlink="http://www.w3.org/1999/xlink">
<defs/>
<clipPath id="ArtboardFrame">
<rect height="537" width="801.953" x="0" y="0"/>
</clipPath>
<g clip-path="url(#ArtboardFrame)" id="Untitled" vectornator:layerName="Untitled">
<path d="M658.249 321.503C658.78 321.345 659.322 321.229 659.87 321.157L681.769 276.66L675.083 266.637L688.891 254.571L706.248 275.811L670.897 327.259C672.678 331.243 671.808 335.913 668.712 338.988C665.616 342.063 660.94 342.902 656.968 341.095C652.996 339.287 650.557 335.211 650.842 330.857C651.127 326.502 654.076 322.778 658.249 321.503Z" fill="#a0616a" fill-rule="nonzero" opacity="1" stroke="none" vectornator:layerName="path"/>
<path d="M695.632 260.718C695.334 261.032 694.991 261.302 694.616 261.519L672.21 274.508C671.121 275.139 669.818 275.286 668.616 274.912C667.415 274.538 666.424 273.678 665.886 272.54L654.989 249.517C654.03 247.515 654.685 245.112 656.526 243.872L670.415 234.424C672.204 233.208 674.605 233.436 676.133 234.968L695.546 254.449C697.263 256.173 697.301 258.948 695.632 260.718Z" fill="#cccccc" fill-rule="nonzero" opacity="1" stroke="none" vectornator:layerName="path"/>
<path d="M727.092 515.689L715.262 518.908L697.217 474.811L714.677 470.06L727.092 515.689Z" fill="#a0616a" fill-rule="nonzero" opacity="1" stroke="none" vectornator:layerName="polygon"/>
<path d="M705.892 517.827L728.707 511.62L728.707 511.62L732.615 525.984L732.615 525.984L695.436 536.1L695.436 536.1L695.436 536.1C693.278 528.167 697.959 519.986 705.892 517.827Z" fill="#2f2e41" fill-rule="nonzero" opacity="1" stroke="none" vectornator:layerName="path"/>
<path d="M625.961 524.716L613.702 524.715L607.869 477.427L625.963 477.428L625.961 524.716Z" fill="#a0616a" fill-rule="nonzero" opacity="1" stroke="none" vectornator:layerName="polygon"/>
<path d="M604.944 521.212L628.588 521.212L628.588 521.212L628.588 536.099L628.588 536.099L590.057 536.099L590.057 536.099L590.057 536.099C590.057 527.877 596.723 521.212 604.944 521.212Z" fill="#2f2e41" fill-rule="nonzero" opacity="1" stroke="none" vectornator:layerName="path"/>
<path d="M614.317 194.165C614.317 180.601 625.313 169.604 638.878 169.604C652.443 169.604 663.439 180.601 663.439 194.165C663.439 207.73 652.443 218.726 638.878 218.726C625.313 218.726 614.317 207.73 614.317 194.165Z" fill="#a0616a" fill-rule="nonzero" opacity="1" stroke="none" vectornator:layerName="circle"/>
<path d="M625.211 491L608.457 491C606.08 490.996 604.114 489.149 603.961 486.777C598.969 407.416 601.889 350.488 613.151 307.624C613.2 307.437 613.261 307.252 613.333 307.072L614.231 304.829C614.909 303.117 616.567 301.994 618.409 302L652.861 302C654.175 301.999 655.423 302.573 656.278 303.571L660.957 309.031C661.048 309.138 661.134 309.246 661.216 309.36C682.317 338.786 701.227 396.314 723.129 473.639C723.801 475.976 722.489 478.423 720.17 479.155L702.165 484.917C700.029 485.59 697.722 484.598 696.74 482.585L650.018 385.678C649.347 384.287 647.844 383.5 646.319 383.741C644.794 383.982 643.607 385.194 643.397 386.724L629.669 487.109C629.357 489.335 627.458 490.993 625.211 491Z" fill="#2f2e41" fill-rule="nonzero" opacity="1" stroke="none" vectornator:layerName="path"/>
<path d="M659.068 309.431C659.021 309.431 658.974 309.43 658.927 309.429L617.079 308.107C614.855 308.045 613.013 306.362 612.75 304.153C607.445 261.212 621.994 249.708 628.496 246.756C629.601 246.257 630.364 245.216 630.508 244.013L631.07 239.512C631.166 238.717 631.473 237.962 631.96 237.326C642.153 224.121 656.072 219.893 663.462 218.548C664.674 218.33 665.921 218.619 666.914 219.346C667.906 220.074 668.557 221.177 668.714 222.397L669.556 228.86C669.642 229.477 669.888 230.06 670.27 230.552C691.529 258.344 667.845 299.379 662.881 307.322L662.881 307.322C662.057 308.633 660.617 309.429 659.068 309.431Z" fill="#cccccc" fill-rule="nonzero" opacity="1" stroke="none" vectornator:layerName="path"/>
<path d="M688.431 196.93C682.952 189.215 676.382 182.337 668.926 176.51C662.728 171.669 655.828 167.532 648.216 165.554C640.604 163.575 632.198 163.912 625.253 167.603C618.308 171.294 611.128 178.627 611.084 186.492C611.07 189.019 611.713 192.437 614.201 192L614.921 192.096C620.923 190.883 626.925 189.671 632.927 188.459C635.484 197.33 638.041 206.202 640.597 215.074C641.136 216.944 641.859 219.035 643.633 219.832C645.305 220.583 647.238 219.876 648.929 219.17C649.208 219.053 651.598 213.688 651.598 213.688C651.72 213.347 652.017 213.098 652.374 213.038C652.732 212.978 653.094 213.117 653.32 213.4L654.74 215.174C655.298 215.871 656.249 216.114 657.072 215.77C666.861 211.684 676.649 207.598 686.438 203.512C687.791 202.947 689.303 202.21 689.695 200.797C690.071 199.444 689.244 198.076 688.431 196.93Z" fill="#2f2e41" fill-rule="nonzero" opacity="1" stroke="none" vectornator:layerName="path"/>
<path d="M800.953 537L499.953 537C499.4 537 498.953 536.552 498.953 536C498.953 535.448 499.4 535 499.953 535L800.953 535C801.505 535 801.953 535.448 801.953 536C801.953 536.552 801.505 537 800.953 537Z" fill="#3f3d56" fill-rule="nonzero" opacity="1" stroke="none" vectornator:layerName="path"/>
<path d="M637.77 381.164C637.089 381.161 636.428 380.942 635.881 380.539L631.329 377.231C630.554 376.666 629.502 376.666 628.727 377.231L624.175 380.539C623.049 381.357 621.524 381.357 620.397 380.539C619.271 379.721 618.8 378.27 619.23 376.946L620.969 371.595C621.267 370.683 620.942 369.683 620.164 369.121L615.612 365.813C614.486 364.995 614.015 363.544 614.445 362.22C614.875 360.896 616.109 360 617.501 360L623.128 360C624.087 360.002 624.938 359.384 625.233 358.471L626.971 353.12C627.401 351.795 628.635 350.899 630.028 350.899C631.42 350.899 632.654 351.795 633.084 353.12L634.823 358.471C635.117 359.384 635.968 360.002 636.928 360L642.554 360C643.946 360 645.18 360.896 645.61 362.22C646.04 363.544 645.569 364.995 644.443 365.813L639.891 369.12C639.114 369.683 638.789 370.683 639.087 371.595L640.826 376.946C641.272 378.27 640.798 379.73 639.658 380.539C639.111 380.942 638.45 381.161 637.77 381.164Z" fill="#019ee0" fill-rule="nonzero" opacity="1" stroke="none" vectornator:layerName="path"/>
<path d="M655.165 370.466C657.768 368.641 659.429 365.756 659.7 362.588C659.972 359.421 658.826 356.295 656.572 354.054L664.345 260.182L641.201 263.366L640.761 354.571C637.167 358.698 637.228 364.861 640.903 368.916C644.578 372.972 650.705 373.638 655.165 370.466Z" fill="#a0616a" fill-rule="nonzero" opacity="1" stroke="none" vectornator:layerName="path"/>
<path d="M665.857 273.699C665.424 273.699 664.993 273.637 664.577 273.514L639.731 266.206C638.523 265.851 637.52 265.007 636.964 263.878C636.407 262.749 636.35 261.438 636.804 260.265L645.999 236.511C646.792 234.437 648.984 233.258 651.151 233.739L667.566 237.308C669.68 237.768 671.167 239.667 671.108 241.829L670.345 269.321C670.277 271.753 668.29 273.691 665.857 273.699Z" fill="#cccccc" fill-rule="nonzero" opacity="1" stroke="none" vectornator:layerName="path"/>
<path d="M432 391L7 391C3.13581 390.996 0.0043418 387.864 4.65332e-06 384L4.65332e-06 257C0.0043418 253.136 3.13581 250.004 7 250L432 250C435.864 250.004 438.996 253.136 439 257L439 384C438.996 387.864 435.864 390.996 432 391ZM7 252C4.23991 252.003 2.0032 254.24 2 257L2 384C2.0032 386.76 4.23991 388.997 7 389L432 389C434.76 388.997 436.997 386.76 437 384L437 257C436.997 254.24 434.76 252.003 432 252L7 252Z" fill="#3f3d56" fill-rule="nonzero" opacity="1" stroke="none" vectornator:layerName="path"/>
<path d="M192.975 444.475C192.142 444.472 191.332 444.204 190.661 443.709L185.085 439.658C184.135 438.964 182.847 438.964 181.897 439.658L176.321 443.709C174.941 444.711 173.073 444.711 171.693 443.709C170.314 442.707 169.736 440.93 170.263 439.308L172.393 432.753C172.758 431.636 172.36 430.41 171.408 429.721L165.832 425.669C164.452 424.667 163.875 422.89 164.402 421.268C164.929 419.646 166.44 418.548 168.145 418.548L175.038 418.548C176.214 418.55 177.256 417.793 177.617 416.675L179.747 410.119C180.274 408.497 181.785 407.399 183.491 407.399C185.197 407.399 186.708 408.497 187.235 410.119L189.365 416.675C189.726 417.793 190.768 418.55 191.944 418.548L198.837 418.548C200.542 418.548 202.053 419.646 202.58 421.268C203.107 422.89 202.53 424.667 201.15 425.669L195.574 429.721C194.622 430.41 194.224 431.636 194.589 432.753L196.719 439.308C197.266 440.93 196.685 442.718 195.289 443.709C194.618 444.203 193.808 444.472 192.975 444.475Z" fill="#019ee0" fill-rule="nonzero" opacity="1" stroke="none" vectornator:layerName="path"/>
<path d="M249.484 444.475C248.65 444.472 247.84 444.204 247.17 443.709L241.593 439.658C240.644 438.964 239.355 438.964 238.406 439.658L232.829 443.709C231.45 444.711 229.582 444.711 228.202 443.709C226.822 442.707 226.245 440.93 226.771 439.308L228.901 432.753C229.267 431.636 228.869 430.41 227.917 429.721L222.34 425.669C220.961 424.667 220.383 422.89 220.91 421.268C221.437 419.646 222.949 418.548 224.654 418.548L231.547 418.548C232.722 418.55 233.764 417.793 234.126 416.675L236.256 410.119C236.782 408.497 238.294 407.399 240 407.399C241.705 407.399 243.217 408.497 243.743 410.119L245.873 416.675C246.235 417.793 247.277 418.55 248.452 418.548L255.345 418.548C257.05 418.548 258.562 419.646 259.089 421.268C259.616 422.89 259.039 424.667 257.659 425.669L252.083 429.721C251.13 430.41 250.732 431.636 251.097 432.753L253.227 439.308C253.774 440.93 253.193 442.718 251.797 443.709C251.127 444.203 250.317 444.472 249.484 444.475Z" fill="#019ee0" fill-rule="nonzero" opacity="1" stroke="none" vectornator:layerName="path"/>
<path d="M305.992 444.475C305.159 444.472 304.349 444.203 303.678 443.709L298.102 439.658C297.152 438.966 295.864 438.966 294.914 439.658L289.338 443.709C287.958 444.711 286.09 444.711 284.71 443.709C283.331 442.707 282.753 440.93 283.28 439.308L285.41 432.753C285.775 431.636 285.377 430.41 284.425 429.721L278.849 425.669C277.469 424.667 276.892 422.89 277.419 421.268C277.946 419.646 279.457 418.548 281.163 418.548L288.055 418.548C289.231 418.55 290.273 417.793 290.634 416.675L292.764 410.119C293.291 408.497 294.802 407.399 296.508 407.399C298.214 407.399 299.725 408.497 300.252 410.119L302.382 416.675C302.743 417.793 303.785 418.55 304.961 418.548L311.853 418.548C313.559 418.548 315.07 419.646 315.597 421.268C316.124 422.89 315.547 424.667 314.167 425.669L308.591 429.721C307.639 430.41 307.241 431.636 307.606 432.753L309.736 439.308C310.283 440.93 309.701 442.718 308.306 443.709C307.635 444.203 306.825 444.472 305.992 444.475Z" fill="#019ee0" fill-rule="nonzero" opacity="1" stroke="none" vectornator:layerName="path"/>
<path d="M362.501 444.475C361.668 444.472 360.857 444.204 360.187 443.709L354.61 439.658C353.661 438.964 352.372 438.964 351.423 439.658L345.846 443.709C344.467 444.711 342.599 444.711 341.219 443.709C339.839 442.707 339.262 440.93 339.788 439.308L341.918 432.753C342.284 431.636 341.886 430.41 340.933 429.721L335.357 425.669C333.977 424.667 333.4 422.89 333.927 421.268C334.454 419.646 335.965 418.548 337.671 418.548L344.564 418.548C345.739 418.55 346.781 417.793 347.143 416.675L349.272 410.119C349.799 408.497 351.311 407.399 353.016 407.399C354.722 407.399 356.233 408.497 356.76 410.119L358.89 416.675C359.251 417.793 360.294 418.55 361.469 418.548L368.362 418.548C370.067 418.548 371.578 419.646 372.105 421.268C372.633 422.89 372.055 424.667 370.676 425.669L365.099 429.721C364.147 430.41 363.749 431.636 364.114 432.753L366.244 439.308C366.791 440.93 366.21 442.718 364.814 443.709C364.144 444.204 363.334 444.472 362.501 444.475Z" fill="#019ee0" fill-rule="nonzero" opacity="1" stroke="none" vectornator:layerName="path"/>
<path d="M400.041 444.864C399.126 444.86 398.236 444.566 397.5 444.023C395.966 442.935 395.328 440.97 395.928 439.188L398.059 432.633C398.372 431.675 398.03 430.625 397.214 430.035L391.638 425.983C390.122 424.882 389.488 422.93 390.067 421.148C390.646 419.367 392.306 418.16 394.18 418.161L401.072 418.161C402.08 418.162 402.973 417.513 403.282 416.555L405.413 409.999C405.992 408.218 407.652 407.012 409.525 407.012C411.398 407.012 413.059 408.218 413.638 409.999L415.768 416.555C416.077 417.513 416.97 418.162 417.978 418.161L424.871 418.161C426.744 418.161 428.404 419.367 428.983 421.148C429.562 422.93 428.928 424.882 427.412 425.983L421.836 430.035C421.02 430.625 420.678 431.675 420.991 432.633L423.122 439.188C423.7 440.97 423.066 442.921 421.551 444.022C420.035 445.123 417.983 445.123 416.467 444.022L410.891 439.971C410.077 439.377 408.973 439.377 408.159 439.971L402.582 444.022C401.846 444.566 400.956 444.86 400.041 444.864ZM409.525 437.525C410.438 437.525 411.328 437.815 412.066 438.353L417.643 442.404C418.457 442.996 419.56 442.997 420.375 442.405C421.19 441.813 421.53 440.764 421.219 439.806L419.089 433.251C418.507 431.469 419.142 429.515 420.66 428.417L426.236 424.365C427.051 423.773 427.392 422.724 427.081 421.766C426.769 420.809 425.877 420.161 424.87 420.161L417.978 420.161C416.103 420.164 414.441 418.957 413.865 417.173L411.735 410.618C411.424 409.66 410.532 409.012 409.525 409.012C408.518 409.012 407.626 409.66 407.315 410.618L405.184 417.173C404.609 418.957 402.947 420.164 401.072 420.161L394.179 420.161C393.173 420.161 392.28 420.809 391.969 421.766C391.658 422.724 391.999 423.773 392.813 424.365L398.39 428.417C399.908 429.516 400.543 431.469 399.961 433.251L397.83 439.806C397.519 440.764 397.86 441.813 398.675 442.404C399.489 442.996 400.592 442.996 401.407 442.404L406.983 438.353C407.722 437.815 408.612 437.525 409.525 437.525Z" fill="#3f3d56" fill-rule="nonzero" opacity="1" stroke="none" vectornator:layerName="path"/>
<path d="M55 280C51.4102 280 48.5 282.91 48.5 286.5C48.5 290.09 51.4102 293 55 293L384 293C387.59 293 390.5 290.09 390.5 286.5C390.5 282.91 387.59 280 384 280L55 280Z" fill="#cccccc" fill-rule="nonzero" opacity="1" stroke="none" vectornator:layerName="path"/>
<path d="M55 314C51.4102 314 48.5 316.91 48.5 320.5C48.5 324.09 51.4102 327 55 327L384 327C387.59 327 390.5 324.09 390.5 320.5C390.5 316.91 387.59 314 384 314L55 314Z" fill="#cccccc" fill-rule="nonzero" opacity="1" stroke="none" vectornator:layerName="path"/>
<path d="M55 348C51.4102 348 48.5 350.91 48.5 354.5C48.5 358.09 51.4102 361 55 361L384 361C387.59 361 390.5 358.09 390.5 354.5C390.5 350.91 387.59 348 384 348L55 348Z" fill="#cccccc" fill-rule="nonzero" opacity="1" stroke="none" vectornator:layerName="path"/>
<path d="M55 280C51.4102 280 48.5 282.91 48.5 286.5C48.5 290.09 51.4102 293 55 293L384 293C387.59 293 390.5 290.09 390.5 286.5C390.5 282.91 387.59 280 384 280L55 280Z" fill="#cccccc" fill-rule="nonzero" opacity="1" stroke="none" vectornator:layerName="path"/>
<path d="M55 314C51.4102 314 48.5 316.91 48.5 320.5C48.5 324.09 51.4102 327 55 327L384 327C387.59 327 390.5 324.09 390.5 320.5C390.5 316.91 387.59 314 384 314L55 314Z" fill="#cccccc" fill-rule="nonzero" opacity="1" stroke="none" vectornator:layerName="path"/>
<path d="M55 348C51.4102 348 48.5 350.91 48.5 354.5C48.5 358.09 51.4102 361 55 361L384 361C387.59 361 390.5 358.09 390.5 354.5C390.5 350.91 387.59 348 384 348L55 348Z" fill="#cccccc" fill-rule="nonzero" opacity="1" stroke="none" vectornator:layerName="path"/>
<path d="M432 141L7 141C3.13581 140.996 0.0043418 137.864 4.65332e-06 134L4.65332e-06 7C0.0043418 3.1358 3.13581 0.00433715 7 0L432 0C435.864 0.00433165 438.996 3.1358 439 7L439 134C438.996 137.864 435.864 140.996 432 141ZM7 2C4.23991 2.0032 2.0032 4.2399 2 7L2 134C2.0032 136.76 4.23991 138.997 7 139L432 139C434.76 138.997 436.997 136.76 437 134L437 7C436.997 4.23988 434.76 2.00315 432 2L7 2Z" fill="#3f3d56" fill-rule="nonzero" opacity="1" stroke="none" vectornator:layerName="path"/>
<path d="M192.975 194.475C192.142 194.472 191.332 194.204 190.661 193.709L185.085 189.658C184.135 188.964 182.847 188.964 181.897 189.658L176.321 193.709C174.941 194.711 173.073 194.711 171.693 193.709C170.314 192.707 169.736 190.93 170.263 189.308L172.393 182.753C172.758 181.636 172.36 180.41 171.408 179.721L165.832 175.669C164.452 174.667 163.875 172.89 164.402 171.268C164.929 169.646 166.44 168.548 168.145 168.548L175.038 168.548C176.214 168.55 177.256 167.793 177.617 166.675L179.747 160.119C180.274 158.497 181.785 157.399 183.491 157.399C185.197 157.399 186.708 158.497 187.235 160.119L189.365 166.675C189.726 167.793 190.768 168.55 191.944 168.548L198.837 168.548C200.542 168.548 202.053 169.646 202.58 171.268C203.107 172.89 202.53 174.667 201.15 175.669L195.574 179.721C194.622 180.41 194.224 181.636 194.589 182.753L196.719 189.308C197.266 190.93 196.685 192.718 195.289 193.709C194.618 194.203 193.808 194.472 192.975 194.475Z" fill="#019ee0" fill-rule="nonzero" opacity="1" stroke="none" vectornator:layerName="path"/>
<path d="M249.484 194.475C248.65 194.472 247.84 194.204 247.17 193.709L241.593 189.658C240.644 188.964 239.355 188.964 238.406 189.658L232.829 193.709C231.45 194.711 229.582 194.711 228.202 193.709C226.822 192.707 226.245 190.93 226.771 189.308L228.901 182.753C229.267 181.636 228.869 180.41 227.917 179.721L222.34 175.669C220.961 174.667 220.383 172.89 220.91 171.268C221.437 169.646 222.949 168.548 224.654 168.548L231.547 168.548C232.722 168.55 233.764 167.793 234.126 166.675L236.256 160.119C236.782 158.497 238.294 157.399 240 157.399C241.705 157.399 243.217 158.497 243.743 160.119L245.873 166.675C246.235 167.793 247.277 168.55 248.452 168.548L255.345 168.548C257.05 168.548 258.562 169.646 259.089 171.268C259.616 172.89 259.039 174.667 257.659 175.669L252.083 179.721C251.13 180.41 250.732 181.636 251.097 182.753L253.227 189.308C253.774 190.93 253.193 192.718 251.797 193.709C251.127 194.203 250.317 194.472 249.484 194.475Z" fill="#019ee0" fill-rule="nonzero" opacity="1" stroke="none" vectornator:layerName="path"/>
<path d="M305.992 194.475C305.159 194.472 304.349 194.203 303.678 193.709L298.102 189.658C297.152 188.966 295.864 188.966 294.914 189.658L289.338 193.709C287.958 194.711 286.09 194.711 284.71 193.709C283.331 192.707 282.753 190.93 283.28 189.308L285.41 182.753C285.775 181.636 285.377 180.41 284.425 179.721L278.849 175.669C277.469 174.667 276.892 172.89 277.419 171.268C277.946 169.646 279.457 168.548 281.163 168.548L288.055 168.548C289.231 168.55 290.273 167.793 290.634 166.675L292.764 160.119C293.291 158.497 294.802 157.399 296.508 157.399C298.214 157.399 299.725 158.497 300.252 160.119L302.382 166.675C302.743 167.793 303.785 168.55 304.961 168.548L311.853 168.548C313.559 168.548 315.07 169.646 315.597 171.268C316.124 172.89 315.547 174.667 314.167 175.669L308.591 179.721C307.639 180.41 307.241 181.636 307.606 182.753L309.736 189.308C310.283 190.93 309.701 192.718 308.306 193.709C307.635 194.203 306.825 194.472 305.992 194.475Z" fill="#019ee0" fill-rule="nonzero" opacity="1" stroke="none" vectornator:layerName="path"/>
<path d="M305.992 194.475C305.159 194.472 304.349 194.203 303.678 193.709L298.102 189.658C297.152 188.966 295.864 188.966 294.914 189.658L289.338 193.709C287.958 194.711 286.09 194.711 284.71 193.709C283.331 192.707 282.753 190.93 283.28 189.308L285.41 182.753C285.775 181.636 285.377 180.41 284.425 179.721L278.849 175.669C277.469 174.667 276.892 172.89 277.419 171.268C277.946 169.646 279.457 168.548 281.163 168.548L288.055 168.548C289.231 168.55 290.273 167.793 290.634 166.675L292.764 160.119C293.291 158.497 294.802 157.399 296.508 157.399C298.214 157.399 299.725 158.497 300.252 160.119L302.382 166.675C302.743 167.793 303.785 168.55 304.961 168.548L311.853 168.548C313.559 168.548 315.07 169.646 315.597 171.268C316.124 172.89 315.547 174.667 314.167 175.669L308.591 179.721C307.639 180.41 307.241 181.636 307.606 182.753L309.736 189.308C310.283 190.93 309.701 192.718 308.306 193.709C307.635 194.203 306.825 194.472 305.992 194.475Z" fill="#019ee0" fill-rule="nonzero" opacity="1" stroke="none" vectornator:layerName="path 1"/>
<path d="M362.5 194.088C361.667 194.085 360.857 193.816 360.187 193.322L354.61 189.27C353.66 188.579 352.373 188.579 351.422 189.27L345.846 193.322C344.466 194.324 342.598 194.324 341.219 193.322C339.839 192.32 339.261 190.543 339.788 188.921L341.918 182.366C342.284 181.248 341.885 180.023 340.933 179.333L335.357 175.282C333.977 174.28 333.4 172.503 333.927 170.881C334.454 169.259 335.965 168.161 337.671 168.161L344.564 168.161C345.739 168.163 346.781 167.406 347.142 166.287L349.272 159.732C349.799 158.11 351.311 157.012 353.016 157.012C354.722 157.012 356.233 158.11 356.76 159.732L358.89 166.287C359.251 167.406 360.294 168.163 361.469 168.161L368.362 168.161C370.067 168.161 371.578 169.259 372.105 170.881C372.633 172.503 372.055 174.28 370.676 175.282L365.099 179.333C364.147 180.023 363.749 181.248 364.114 182.366L366.244 188.921C366.791 190.543 366.21 192.331 364.814 193.322C364.144 193.816 363.333 194.085 362.5 194.088Z" fill="#019ee0" fill-rule="nonzero" opacity="1" stroke="none" vectornator:layerName="path 2"/>
<path d="M55 30C51.4102 30 48.5 32.9101 48.5 36.5C48.5 40.0899 51.4102 43 55 43L384 43C387.59 43 390.5 40.0899 390.5 36.5C390.5 32.9101 387.59 30 384 30L55 30Z" fill="#cccccc" fill-rule="nonzero" opacity="1" stroke="none" vectornator:layerName="path"/>
<path d="M55 64C51.4102 64 48.5 66.9101 48.5 70.5C48.5 74.0899 51.4102 77 55 77L384 77C387.59 77 390.5 74.0899 390.5 70.5C390.5 66.9101 387.59 64 384 64L55 64Z" fill="#cccccc" fill-rule="nonzero" opacity="1" stroke="none" vectornator:layerName="path"/>
<path d="M55 98C51.4102 98 48.5 100.91 48.5 104.5C48.5 108.09 51.4102 111 55 111L384 111C387.59 111 390.5 108.09 390.5 104.5C390.5 100.91 387.59 98 384 98L55 98Z" fill="#cccccc" fill-rule="nonzero" opacity="1" stroke="none" vectornator:layerName="path"/>
<path d="M55 30C51.4102 30 48.5 32.9101 48.5 36.5C48.5 40.0899 51.4102 43 55 43L384 43C387.59 43 390.5 40.0899 390.5 36.5C390.5 32.9101 387.59 30 384 30L55 30Z" fill="#cccccc" fill-rule="nonzero" opacity="1" stroke="none" vectornator:layerName="path"/>
<path d="M55 64C51.4102 64 48.5 66.9101 48.5 70.5C48.5 74.0899 51.4102 77 55 77L384 77C387.59 77 390.5 74.0899 390.5 70.5C390.5 66.9101 387.59 64 384 64L55 64Z" fill="#cccccc" fill-rule="nonzero" opacity="1" stroke="none" vectornator:layerName="path"/>
<path d="M55 98C51.4102 98 48.5 100.91 48.5 104.5C48.5 108.09 51.4102 111 55 111L384 111C387.59 111 390.5 108.09 390.5 104.5C390.5 100.91 387.59 98 384 98L55 98Z" fill="#cccccc" fill-rule="nonzero" opacity="1" stroke="none" vectornator:layerName="path"/>
<path d="M418.621 194.475C417.788 194.472 416.978 194.203 416.307 193.709L410.731 189.658C409.781 188.966 408.493 188.966 407.543 189.658L401.967 193.709C400.587 194.711 398.719 194.711 397.339 193.709C395.96 192.707 395.382 190.93 395.909 189.308L398.039 182.753C398.404 181.636 398.006 180.41 397.054 179.721L391.478 175.669C390.098 174.667 389.521 172.89 390.048 171.268C390.575 169.646 392.086 168.548 393.792 168.548L400.684 168.548C401.86 168.55 402.902 167.793 403.263 166.675L405.393 160.119C405.92 158.497 407.432 157.399 409.137 157.399C410.843 157.399 412.354 158.497 412.881 160.119L415.011 166.675C415.372 167.793 416.415 168.55 417.59 168.548L424.483 168.548C426.188 168.548 427.699 169.646 428.226 171.268C428.753 172.89 428.176 174.667 426.797 175.669L421.22 179.721C420.268 180.41 419.87 181.636 420.235 182.753L422.365 189.308C422.912 190.93 422.331 192.718 420.935 193.709C420.265 194.203 419.454 194.472 418.621 194.475Z" fill="#019ee0" fill-rule="nonzero" opacity="1" stroke="none" vectornator:layerName="path 3"/>
</g>
</svg>
