<?xml version="1.0" encoding="utf-8"?>
<!-- Generator: Adobe Illustrator 19.0.0, SVG Export Plug-In . SVG Version: 6.00 Build 0)  -->
<svg version="1.1" id="layer" xmlns="http://www.w3.org/2000/svg" xmlns:xlink="http://www.w3.org/1999/xlink" x="0px" y="0px"
	 viewBox="-153 -46 652 652" style="enable-background:new -153 -46 652 652;" xml:space="preserve">
<style type="text/css">
	.st0{fill:#002F5C;}
</style>
<g>
	<path class="st0" d="M457.7,243.9v2.9h1.2c0.7,0,1.2-0.1,1.6-0.3c0.3-0.2,0.5-0.6,0.5-1.1c0-0.5-0.2-0.9-0.5-1.1
		c-0.4-0.2-0.9-0.4-1.7-0.4H457.7z M455.2,242.4h3.9c1.4,0,2.5,0.2,3.2,0.7c0.7,0.5,1.1,1.2,1.1,2.2c0,0.7-0.2,1.2-0.6,1.7
		c-0.4,0.5-0.9,0.8-1.6,1l2.3,4.5h-2.7l-1.9-4.1h-1.2v4.1h-2.4V242.4z M459,240c-1,0-2,0.2-2.9,0.5c-0.9,0.4-1.7,0.9-2.4,1.6
		c-0.7,0.7-1.3,1.6-1.7,2.5c-0.4,0.9-0.6,1.9-0.6,2.9c0,1,0.2,2,0.6,2.9c0.4,0.9,0.9,1.7,1.6,2.4c0.7,0.7,1.5,1.3,2.5,1.7
		c0.9,0.4,1.9,0.6,2.9,0.6c1,0,1.9-0.2,2.8-0.6c0.9-0.4,1.8-0.9,2.5-1.6c0.7-0.7,1.3-1.5,1.6-2.4c0.4-0.9,0.6-1.8,0.6-2.8
		c0-1.1-0.2-2.1-0.5-3c-0.4-0.9-0.9-1.7-1.6-2.4c-0.7-0.8-1.6-1.3-2.5-1.7C461,240.2,460,240,459,240 M459,238.5
		c1.3,0,2.4,0.2,3.5,0.7c1.1,0.5,2.1,1.1,3,2c0.8,0.8,1.5,1.8,1.9,2.9c0.4,1.1,0.7,2.2,0.7,3.5c0,1.2-0.2,2.4-0.7,3.5
		c-0.5,1.1-1.1,2.1-2,2.9c-0.9,0.9-1.9,1.5-3,2c-1.1,0.5-2.3,0.7-3.4,0.7c-1.2,0-2.4-0.2-3.5-0.7c-1.1-0.5-2.1-1.2-3-2
		c-0.8-0.9-1.5-1.8-1.9-2.9c-0.4-1.1-0.7-2.2-0.7-3.4c0-0.8,0.1-1.6,0.3-2.4c0.2-0.8,0.5-1.6,1-2.3c0.8-1.4,1.9-2.5,3.3-3.2
		C455.8,238.9,457.3,238.5,459,238.5"/>
	<path class="st0" d="M12.9,312h23.4v-23.4l5.8-6l18,29.5h28.1l-29.7-46.5L85,238.4H57.5l-21.2,24.4v-24.4H12.9V312z M-55.1,312H5.2
		v-17.9h-36.6v-11.4h29.8v-16.9h-29.8V256H3.8v-17.6h-58.9V312z M-108.3,293.4V257h6.7c11.2,0,15.4,4.9,15.4,18.2
		c0,13.7-4,18.1-15.7,18.1H-108.3z M-132,312h24.2c11.5,0,20.2-0.2,26.4-3.1c12.4-5.5,18.8-17,18.8-33.7c0-15.9-5.1-26.7-15.4-32.6
		c-6.8-3.9-14.9-4.2-25.5-4.2H-132V312z"/>
</g>
<polygon class="st0" points="403.2,238.4 402.7,241.3 426.1,241.3 426.7,238.4 "/>
<polygon class="st0" points="402.2,243.8 401.4,248.3 424.9,248.3 425.7,243.8 "/>
<polygon class="st0" points="401,250.9 400.1,255.5 423.6,255.5 424.4,250.9 "/>
<polygon class="st0" points="399.6,258.1 398.8,262.7 422.4,262.7 423.2,258.1 "/>
<polygon class="st0" points="398.4,265.3 397.6,269.8 421,269.8 421.9,265.3 "/>
<polygon class="st0" points="397.1,272.4 396.3,276.9 419.7,276.9 420.6,272.4 "/>
<polygon class="st0" points="395.8,279.6 395,284 418.4,284 419.2,279.6 "/>
<polygon class="st0" points="394.6,286.6 393.8,291.2 417.2,291.2 418,286.6 "/>
<polygon class="st0" points="393.3,293.8 392.5,298.4 449.4,298.4 450.2,293.8 "/>
<polygon class="st0" points="392,300.9 391.2,305.5 448.2,305.5 448.9,300.9 "/>
<polygon class="st0" points="390.7,308 390,312 446.9,312 447.8,308 "/>
<polygon class="st0" points="348.2,238.4 346.6,241.3 372.2,241.3 371.7,238.4 "/>
<polygon class="st0" points="345.3,243.8 343,248.3 373.4,248.3 372.6,243.8 "/>
<polygon class="st0" points="341.7,250.9 339.3,255.5 374.7,255.5 374,250.9 "/>
<polygon class="st0" points="356.7,265.3 357.2,269.8 377.2,269.8 376.4,265.3 "/>
<polygon class="st0" points="338,258.1 335.7,262.7 355.5,262.7 356.1,261.1 356.4,262.7 375.9,262.7 375.1,258.1 "/>
<polygon class="st0" points="334.4,265.3 331.9,269.8 352.4,269.8 354.4,265.3 "/>
<polygon class="st0" points="357.5,272.4 358,276.9 378.4,276.9 377.6,272.4 "/>
<polygon class="st0" points="330.7,272.4 328.3,276.9 349.2,276.9 351.2,272.4 "/>
<polygon class="st0" points="358.3,279.6 358.8,284 379.6,284 378.8,279.6 "/>
<polygon class="st0" points="327,279.6 324.6,284 346.1,284 348.2,279.6 "/>
<polygon class="st0" points="359.1,286.6 359.4,288.3 344.2,288.3 344.9,286.6 323.3,286.6 321,291.2 381,291.2 380.1,286.6 "/>
<polygon class="st0" points="319.6,293.8 317.2,298.4 382.1,298.4 381.4,293.8 "/>
<polygon class="st0" points="362,308 362.3,312 384.6,312 383.8,308 "/>
<polygon class="st0" points="316,300.9 313.6,305.5 337,305.5 337.9,303.2 361.4,303.2 361.7,305.5 383.4,305.5 382.6,300.9 "/>
<polygon class="st0" points="312.2,308 310.2,312 334.1,312 335.9,308 "/>
<polygon class="st0" points="261.7,238.4 261.2,241.3 325.4,241.3 325.9,238.4 "/>
<polygon class="st0" points="260.7,243.8 259.9,248.3 324,248.3 324.9,243.8 "/>
<polygon class="st0" points="259.2,250.9 258.4,255.5 322.6,255.5 323.5,250.9 "/>
<polygon class="st0" points="278.8,258.1 278.1,262.7 301.5,262.7 302.2,258.1 "/>
<polygon class="st0" points="277.6,265.3 276.8,269.8 300.2,269.8 301,265.3 "/>
<polygon class="st0" points="276.4,272.4 275.6,276.9 298.9,276.9 299.7,272.4 "/>
<polygon class="st0" points="275.1,279.6 274.4,284 297.7,284 298.5,279.6 "/>
<polygon class="st0" points="273.9,286.6 273.1,291.2 296.5,291.2 297.2,286.6 "/>
<polygon class="st0" points="272.6,293.8 271.8,298.4 295.3,298.4 296.1,293.8 "/>
<polygon class="st0" points="271.3,300.9 270.6,305.5 294.1,305.5 294.8,300.9 "/>
<polygon class="st0" points="270.2,308 269.5,312 292.8,312 293.7,308 "/>
<polygon class="st0" points="201.6,238.4 201.1,241.3 258,241.3 258.5,238.4 "/>
<polygon class="st0" points="200.7,243.8 199.9,248.3 256.7,248.3 257.5,243.8 "/>
<polygon class="st0" points="199.4,250.9 198.5,255.5 255.5,255.5 256.3,250.9 "/>
<polygon class="st0" points="198.1,258.1 197.3,262.7 220.2,262.7 221,258.1 "/>
<polygon class="st0" points="196.8,265.3 196,269.8 249,269.8 249.7,266 219.6,266 219.7,265.3 "/>
<polygon class="st0" points="195.5,272.4 194.7,276.9 247.7,276.9 248.6,272.4 "/>
<polygon class="st0" points="194.2,279.6 193.4,284 216.3,284 216.6,282.4 246.7,282.4 247.2,279.6 "/>
<polygon class="st0" points="193,286.6 192.1,291.2 215.2,291.2 215.9,286.6 "/>
<polygon class="st0" points="191.6,293.8 190.8,298.4 250.1,298.4 250.8,294.2 214.7,294.2 214.8,293.8 "/>
<polygon class="st0" points="190.4,300.9 189.6,305.5 248.9,305.5 249.7,300.9 "/>
<polygon class="st0" points="189.1,308 188.4,312 247.9,312 248.5,308 "/>
<polygon class="st0" points="158.2,238.4 156.9,241.3 186.6,241.3 187.2,238.4 "/>
<polygon class="st0" points="104.4,238.4 104,241.3 133.5,241.3 133.2,238.4 "/>
<polygon class="st0" points="154.4,308 153.6,312 174.4,312 175.1,308 "/>
<polygon class="st0" points="155.9,300.9 154.9,305.5 175.6,305.5 176.3,300.9 "/>
<polygon class="st0" points="157.3,293.8 156.4,298.4 176.8,298.4 177.6,293.8 "/>
<polygon class="st0" points="158.7,286.6 157.9,291.2 178,291.2 178.7,286.6 "/>
<polygon class="st0" points="160.4,279.6 159.4,284 179.3,284 180.1,279.6 "/>
<polygon class="st0" points="161.8,272.4 160.9,276.9 180.5,276.9 181.2,272.4 "/>
<polygon class="st0" points="163.2,265.3 162.3,269.8 181.7,269.8 182.5,265.3 "/>
<polygon class="st0" points="164.8,258.1 163.8,262.7 183,262.7 183.7,258.1 "/>
<polygon class="st0" points="155.7,243.8 153.6,248.3 185.4,248.3 186.2,243.8 "/>
<polygon class="st0" points="152.4,250.9 150.1,255.5 184.1,255.5 184.9,250.9 "/>
<g>
	<path class="st0" d="M146.9,262.7l2.1-4.6h15.7c-0.5,1.6-1,3.1-1.5,4.6H146.9z"/>
	<path class="st0" d="M143.5,269.8l2.2-4.5h16.5c-0.4,0.9-0.7,1.8-1.1,2.6l-0.9,1.9H143.5z"/>
</g>
<polygon class="st0" points="124.6,308 125,312 141.3,312 143.1,308 "/>
<polygon class="st0" points="123.9,300.9 124.4,305.5 144.1,305.5 146.3,300.9 "/>
<polygon class="st0" points="123.2,293.8 123.7,298.4 147.5,298.4 149.5,293.8 "/>
<polygon class="st0" points="142.3,272.4 140.2,276.9 157,276.9 159.2,272.4 "/>
<g>
	<path class="st0" d="M137.6,284c0.2-0.7,0.4-1.3,0.4-2c0.3-0.9,0.6-1.8,1-2.5h16.9l-2,4.5H137.6z"/>
	<path class="st0" d="M137.1,286.6c0,0.2-0.1,0.4-0.1,0.5C137.1,287,137.1,286.8,137.1,286.6h15.7l-2.1,4.6H123l-0.5-4.6H137.1z"/>
	<path class="st0" d="M137.1,279.5v1.4c0.1,0.9,0.1,1.9,0,2.9v0.2h-14.9l-0.6-4.5H137.1z"/>
</g>
<polygon class="st0" points="121,272.4 121.5,276.9 136.9,276.9 136.4,272.4 "/>
<g>
	<path class="st0" d="M135.8,265.3l0.4,4.5h-15.4l-0.3-2.3c-0.1-0.6-0.1-1.3-0.2-2.2H135.8z"/>
</g>
<polygon class="st0" points="120.4,258.1 120.4,262.7 135.5,262.7 135.1,258.1 "/>
<polygon class="st0" points="103.5,243.8 102.7,248.3 134.1,248.3 133.6,243.8 "/>
<polygon class="st0" points="102.3,250.9 101.5,255.5 134.8,255.5 134.4,250.9 "/>
<polygon class="st0" points="101.1,258.1 100.3,262.7 119.7,262.7 120.3,258.1 "/>
<polygon class="st0" points="99.9,265.3 99,269.8 118.6,269.8 119.3,265.3 "/>
<polygon class="st0" points="98.5,272.4 97.7,276.9 117.6,276.9 118.2,272.4 "/>
<polygon class="st0" points="97.3,279.6 96.5,284 116.6,284 117.2,279.6 "/>
<polygon class="st0" points="96.1,286.6 95.3,291.2 115.6,291.2 116.3,286.6 "/>
<polygon class="st0" points="94.8,293.8 94,298.4 114.6,298.4 115.3,293.8 "/>
<polygon class="st0" points="93.6,300.9 92.8,305.5 113.7,305.5 114.3,300.9 "/>
<polygon class="st0" points="92.3,308 91.6,312 112.8,312 113.3,308 "/>
</svg>
