<?xml version="1.0" encoding="utf-8"?>
<!-- Generator: Adobe Illustrator 19.2.1, SVG Export Plug-In . SVG Version: 6.00 Build 0)  -->
<svg version="1.1" id="layer" xmlns="http://www.w3.org/2000/svg" xmlns:xlink="http://www.w3.org/1999/xlink" x="0px" y="0px"
	 viewBox="-180 0 1000 652" style="enable-background:new 0 0 652 652;" xml:space="preserve">
<style type="text/css">
	.st0{fill:#00ADEF;}
	.st1{fill-rule:evenodd;clip-rule:evenodd;fill:#00ADEF;}
</style>
<g>
	<polygon class="st0" points="-10.1,71.7 48.4,71.7 15.1,310 56.1,197.5 114.4,197.5 60.3,325.2 77.5,471.7 17.2,471.7 10.6,345 
		-7.5,471.7 -68.3,471.7 	"/>
	<polygon class="st0" points="131.2,197.5 195,197.5 199.8,323.4 220.7,197.5 270.1,197.5 229,471.7 171.2,471.7 164.6,332.9 
		143.1,471.7 90.8,471.7 	"/>
	<path class="st1" d="M362.5,230.6L328,372.5h19.2L362.5,230.6z M245.7,471.7l83.6-274.1h79.4l-16.1,274.1h-56.8l6.4-54.5H317
		l-13.4,54.5H245.7z"/>
	<path class="st0" d="M451.5,197.5h59.2l-35.3,226.6c0,0-0.4,5.1,4,7.4c2.6,1.3,7.7,3.3,12.1-2.3c1-1.3,1.7-4.6,2.4-9
		c0.8-4.4,35.4-222.7,35.4-222.7h58.8l-36.2,233.1c0,0-2.4,31.1-32.1,41.9c-3,1.1-15,5.7-41.2,6c-0.9,0-26.2-0.4-37.4-5.5
		c-1.1-0.5-17-5-25-26c-0.2-0.6-4.2-14.6,0.8-35.9C417.5,408.5,451.5,197.5,451.5,197.5"/>
	<polygon class="st0" points="710,197.5 613.2,197.5 556.4,571.7 617.2,571.7 653.9,341 687.6,341 695.1,295.5 659.4,295.5 
		667.5,240.9 703.7,240.9 	"/>
</g>
</svg>
