<svg xmlns="http://www.w3.org/2000/svg" data-name="Layer 1" viewBox="0 0 765.7 191.5"><path d="M22 0h22.4L32.6 85.2l-.2 1.2-.8 5.6 1.5-5 .6-1.4 13.8-37.3h22L49 97l6.3 56h-23l-2-40v-2.5l-.2-7.2-.6 5.3-.2 1.2-6 43.3H0L22 0zm54.3 48.3h24.4l1.5 43.4v6.6l1-6.6 7-43.4h18.7L113 153H91l-2.2-48-.2-1.2v-5.3L88 105l-7.4 48h-20L76 48.4zm151.4 0h22.7l-14 88c-2.2 15-12 20-32 19.2-21.4-1-21-15-20.3-21.4q8.8-49.3 13.7-85.6h23l-13.5 86a3.4 3.4 0 002.5 3.8 3.4 3.4 0 004-3zm32 0h36.8L294.3 65h-13.8l-3 20.7H291l-2.7 17.5h-13L261 191.5h-23.4l22-143.2zM141.6 153l5-20.6h9.4l-2 20.6h21.8l6-105h-30.2l-32 105zm9.3-38l11.2-45.2.5-2 1.8-7.7-1.2 8-.2 2-5 45z" fill="#209dd8"/><path d="M305.5 48h22L313 152.6h-22L305.5 48zm27.7 0h20.6l3.4 53.6 7.5-53.5H384l-14.7 104.5h-20.6l-4-51.2-7 51.2h-19L333 48zm69 62.6l-3 20.4c-.4 3.6.3 5 2.7 5a3.7 3.7 0 003.7-3l.3-2 2.2-15.6c.5-3.7.2-5.2-3.4-7.3l-13.7-8c-6.5-4-8-10-7-19l1.8-12C388.5 49.6 392.4 47 414 47c16.8 0 25 1.5 23 15.4l-.7 6.3-2.2 15.5h-21.7l2-15c.6-3.6.3-5-2.7-5-2.5 0-3.3 1.8-3.8 5l-1.3 10c-.6 3.7 0 5.2 3.3 7.3l12.6 7.3c7.6 4.5 9 10 7.8 18l-2.7 19.6c-1 7.6-1.4 12.8-5 16.8-4.2 4.6-11 5-23 5-21.3 0-25-2.2-22.4-21.8l3-21zM465.7 48l-11.6 83c-.5 3.6 0 5 2.5 5a3.5 3.5 0 003.7-3.2l.2-1.8 11.6-83h22l-11.5 83.6c-2.7 19.2-6.2 21.8-28.4 21.8-21.8 0-25-2.2-22.3-21.8L443.6 48zm33.5 0h22L509 135.6h13.2l-2.3 17h-35.3L499.3 48zm50.8 0h27l-1.2 104.5H555l1.2-20.6h-9l-4.4 20.5h-20.6zm7.5 67l2.8-44-9.4 44zM593 65.3h-11.3L584 48h44.7l-2.4 17.3H615l-12.2 87.2h-22L593 65.3zM632.3 48h22l-14.5 104.5h-22L632.3 48zm52.4-1c22 0 25 2.6 22.4 22l-8.6 62.4c-2.7 19.3-6.2 22-28.4 22-21.8 0-25-2.3-22.3-22l8.7-62.4c2.7-19 5.5-22 28.3-22M670 130.7c-.6 3.6-.2 5.3 2.4 5.3a3.4 3.4 0 003.7-3.2l.3-2 8.6-61.2c.4-3.7 0-5-3-5-1.8 0-3 1-3.3 3 0 1-.2 1.3-.3 2zM715 48h20.6l3.5 53.6 7.5-53.5h19.2L751 152.6h-20.4l-4-51.2-7 51.2h-19L715 48z" fill="#b5babd"/></svg>