<?xml version="1.0" encoding="utf-8"?>
<!-- Generator: Adobe Illustrator 19.2.1, SVG Export Plug-In . SVG Version: 6.00 Build 0)  -->
<svg version="1.1" id="layer" xmlns="http://www.w3.org/2000/svg" xmlns:xlink="http://www.w3.org/1999/xlink" x="0px" y="0px"
	 viewBox="0 0 652 652" style="enable-background:new 0 0 652 652;" xml:space="preserve">
<style type="text/css">
	.st0{fill:#00A0E9;}
	.st1{clip-path:url(#SVGID_2_);fill:#FFFFFF;}
</style>
<rect x="21.4" y="224.3" class="st0" width="600" height="195.9"/>
<g>
	<defs>
		<rect id="SVGID_1_" x="21.4" y="224.3" width="600" height="195.9"/>
	</defs>
	<clipPath id="SVGID_2_">
		<use xlink:href="#SVGID_1_"  style="overflow:visible;"/>
	</clipPath>
	<path class="st1" d="M150.9,381.3h23.5v-47.8c0.3-11.2,9.1-18.5,19.3-18.5c3.6,0,6.6,0.5,9,1v-20.4c-2.2-0.7-6.7-1.4-9.7-1.4
		c-9,0-16.9,3.3-20,14.5v-12.4h-22.1V381.3z"/>
	<path class="st1" d="M530,315.7h11.7v35.2c0,10.4,4,31.8,31.8,31.8c4.5,0,9-0.7,12.4-1.4V362c-2.6,1-6.2,1.4-9,1.4
		c-8.8,0-11.7-6-11.7-13.1v-34.5h20.7v-18h-20.7v-22.1h-22.8v22.1H530V315.7z"/>
	<path class="st1" d="M483.8,364.7c-8.1,0-13.1-4.5-13.1-10c0-6.2,4.4-10,17.5-10.5l13.6-0.3v4.3
		C501.8,359.8,493.3,364.7,483.8,364.7 M460.3,321.2c6.9-4.8,15.2-7.6,23.6-7.6c10.2,0,18.3,3.5,18.5,14.8l-14.3,0.4
		c-26.8,0.9-40.6,10.4-40.6,27.1c0,13.1,9.6,26.8,32.2,26.8c7.2,0,17.4-2.8,22.8-12.6v11.2h22.8v-51.1c0-19-12.3-35.9-39.2-35.9
		c-11.9,0-25,4.3-34.4,11.1L460.3,321.2z"/>
	<path class="st1" d="M248.9,363.4c-13,0-22.1-9.7-22.1-24.5c0-14.9,9.1-24.5,22.1-24.5c13,0,22.1,9.7,22.1,24.5
		C271,353.7,261.9,363.4,248.9,363.4 M248.9,383.4c26.4,0,45.6-18.3,45.6-44.5c0-26.2-19.2-44.5-45.6-44.5
		c-26.4,0-45.6,18.3-45.6,44.5C203.4,365.1,222.5,383.4,248.9,383.4"/>
	<path class="st1" d="M99.8,281.9c10.5,0,18,7.9,18,18c0,10-7.4,17.3-18,17.3H81.1v-35.2H99.8z M57,381.3h24.2v-43.5h20.7
		c23,0,40.7-15.9,40.7-38c0-22.1-17.8-38.7-40.7-38.7H57V381.3z"/>
	<path class="st1" d="M359.4,381.3h23.5v-49c0-10.7,7.6-17.3,16.6-17.3c9.3,0,15.2,6.7,15.2,16.6v49.7h23.5v-50.4
		c0-18-11.7-36.6-36.6-36.6c-10.9,0-20.2,5.5-24.7,14c-5.2-8.1-13.6-14-25.7-14c-12.1,0-21.6,5.2-24.9,16.4v-14.3h-22.1v84.9h23.5
		v-49c0-10.7,6.9-17.3,15.9-17.3c9.3,0,15.9,6.7,15.9,16.6V381.3z"/>
</g>
</svg>
