<?xml version="1.0" encoding="UTF-8" standalone="no"?>
<!DOCTYPE svg PUBLIC "-//W3C//DTD SVG 1.1//EN" "http://www.w3.org/Graphics/SVG/1.1/DTD/svg11.dtd">
<svg xmlns="http://www.w3.org/2000/svg" xmlns:xlink="http://www.w3.org/1999/xlink" version="1.1" width="726.182pt" height="283.465pt" viewBox="0 0 726.182 283.465">
<g enable-background="new">
<g id="Layer-1" data-name="Calque 1">
<clipPath id="cp0">
<path transform="matrix(1,0,0,-1,0,283.465)" d="M 0 283.465 L 726.182 283.465 L 726.182 0 L 0 0 Z "/>
</clipPath>
<g clip-path="url(#cp0)">
<path transform="matrix(1,0,0,-1,375.4693,227.0108)" d="M 0 0 C -4.522 1.371 -6.503 2.241 -6.503 4.827 C -6.503 7.144 -3.421 7.966 -.78 7.966 C 1.529 7.966 4.011 7.279 5.697 6.175 C 6.097 5.916 6.587 5.837 7.046 5.963 C 7.504 6.085 7.89 6.403 8.103 6.827 L 8.872 8.363 C 9.25 9.121 9.001 10.042 8.292 10.508 C 5.863 12.094 2.418 13.081 -.701 13.081 C -7.255 13.081 -11.659 9.715 -11.659 4.707 C -11.659 -1.801 -6.164 -3.447 -1.751 -4.77 C 2.866 -6.155 4.886 -7.045 4.861 -9.794 C 4.861 -12.555 1.612 -13.538 -1.427 -13.538 C -4.34 -13.538 -7.508 -11.986 -9.435 -10.209 C -9.819 -9.855 -10.314 -9.652 -10.829 -9.712 C -11.345 -9.771 -11.805 -10.068 -12.07 -10.515 L -12.958 -12.011 C -13.352 -12.67 -13.243 -13.513 -12.696 -14.051 C -9.838 -16.864 -5.537 -18.613 -1.468 -18.613 C 5.4 -18.613 10.016 -15.051 10.016 -9.766 C 10.067 -3.055 4.485 -1.36 0 0 " fill="#231f20"/>
<path transform="matrix(1,0,0,-1,398.3971,232.5089)" d="M 0 0 L 4.895 10.849 L 9.845 0 Z M 7.333 17.524 C 7.061 18.118 6.469 18.498 5.816 18.498 L 3.999 18.498 C 3.343 18.498 2.749 18.115 2.48 17.519 L -10.325 -10.713 C -10.56 -11.234 -10.515 -11.831 -10.209 -12.307 C -9.9 -12.789 -9.372 -13.072 -8.806 -13.072 L -6.948 -13.072 C -6.293 -13.072 -5.698 -12.69 -5.427 -12.092 L -2.235 -5.035 L 12.136 -5.035 L 15.367 -12.098 C 15.638 -12.692 16.231 -13.072 16.883 -13.072 L 18.741 -13.072 C 19.311 -13.072 19.839 -12.784 20.146 -12.305 C 20.453 -11.829 20.495 -11.229 20.259 -10.709 Z " fill="#231f20"/>
<path transform="matrix(1,0,0,-1,427.0326,214.0109)" d="M 0 0 L -1.695 0 C -2.616 0 -3.364 -.747 -3.364 -1.668 L -3.364 -29.9 C -3.364 -30.825 -2.616 -31.57 -1.695 -31.57 L 0 -31.57 C .921 -31.57 1.669 -30.825 1.669 -29.9 L 1.669 -1.668 C 1.669 -.747 .921 0 0 0 " fill="#231f20"/>
<path transform="matrix(1,0,0,-1,462.2549,214.0109)" d="M 0 0 L -1.657 0 C -2.581 0 -3.326 -.747 -3.326 -1.668 L -3.326 -22.23 L -19.174 -.68 C -19.488 -.25 -19.989 0 -20.518 0 L -22.499 0 C -23.42 0 -24.166 -.747 -24.166 -1.668 L -24.166 -29.9 C -24.166 -30.825 -23.42 -31.57 -22.499 -31.57 L -20.804 -31.57 C -19.88 -31.57 -19.134 -30.825 -19.134 -29.9 L -19.134 -9.348 L -3.326 -30.892 C -3.013 -31.319 -2.512 -31.57 -1.98 -31.57 L 0 -31.57 C .922 -31.57 1.669 -30.825 1.669 -29.9 L 1.669 -1.668 C 1.669 -.747 .922 0 0 0 " fill="#231f20"/>
<path transform="matrix(1,0,0,-1,491.3752,214.0109)" d="M 0 0 L -20.763 0 C -21.683 0 -22.43 -.747 -22.43 -1.668 L -22.43 -3.327 C -22.43 -4.245 -21.683 -4.994 -20.763 -4.994 L -12.898 -4.994 L -12.898 -29.9 C -12.898 -30.825 -12.149 -31.57 -11.228 -31.57 L -9.536 -31.57 C -8.61 -31.57 -7.863 -30.825 -7.863 -29.9 L -7.863 -4.994 L 0 -4.994 C .921 -4.994 1.669 -4.245 1.669 -3.327 L 1.669 -1.668 C 1.669 -.747 .921 0 0 0 " fill="#231f20"/>
<path transform="matrix(1,0,0,-1,503.7926,229.4011)" d="M 0 0 L -9.009 0 C -9.93 0 -10.678 -.747 -10.678 -1.668 L -10.678 -3.042 C -10.678 -3.965 -9.93 -4.712 -9.009 -4.712 L 0 -4.712 C .921 -4.712 1.667 -3.965 1.667 -3.042 L 1.667 -1.668 C 1.667 -.747 .921 0 0 0 " fill="#231f20"/>
<path transform="matrix(1,0,0,-1,538.8719,228.3894)" d="M 0 0 L -1.535 0 C -1.545 0 -1.554 -.002 -1.564 -.002 L -6.576 -.002 C -7.5 -.002 -8.246 -.75 -8.246 -1.672 L -8.246 -3.366 C -8.246 -4.288 -7.5 -5.036 -6.576 -5.036 L -3.202 -5.036 L -3.202 -10.196 C -5.17 -11.545 -7.532 -12.279 -9.936 -12.279 C -16.165 -12.279 -21.233 -7.394 -21.233 -1.387 C -21.233 4.598 -16.165 9.465 -9.936 9.465 C -7.045 9.465 -4.198 8.398 -2.123 6.539 C -1.783 6.233 -1.33 6.08 -.877 6.118 C -.418 6.154 .002 6.377 .29 6.734 L 1.299 7.985 C 1.86 8.684 1.774 9.7 1.1 10.291 C -1.935 12.951 -5.857 14.419 -9.936 14.419 C -18.941 14.419 -26.268 7.331 -26.268 -1.387 C -26.268 -10.126 -18.978 -17.231 -10.017 -17.231 C -5.965 -17.231 -1.919 -15.746 1.089 -13.152 C 1.457 -12.837 1.669 -12.374 1.669 -11.886 L 1.669 -1.669 C 1.669 -.749 .921 0 0 0 " fill="#231f20"/>
<path transform="matrix(1,0,0,-1,562.5397,240.6285)" d="M 0 0 C -6.184 0 -11.217 4.869 -11.217 10.852 C -11.217 16.814 -6.184 21.663 0 21.663 C 6.185 21.663 11.216 16.814 11.216 10.852 C 11.216 4.869 6.185 0 0 0 M 0 26.658 C -8.982 26.658 -16.288 19.57 -16.288 10.852 C -16.288 2.113 -8.982 -4.993 0 -4.993 C 8.982 -4.993 16.292 2.113 16.292 10.852 C 16.292 19.57 8.982 26.658 0 26.658 " fill="#231f20"/>
<path transform="matrix(1,0,0,-1,589.5466,231.808)" d="M 0 0 L 8.146 0 C 10.721 0 15.039 -.559 15.039 -4.309 C 15.039 -8.005 11.293 -8.78 8.146 -8.78 L 0 -8.78 Z M 8.146 4.994 L 0 4.994 L 0 12.803 L 8.146 12.803 C 10.645 12.803 13.627 12.133 13.627 8.938 C 13.627 6.32 11.784 4.994 8.146 4.994 M 16.018 2.904 C 17.716 4.367 18.662 6.522 18.662 9.141 C 18.662 14.481 14.646 17.797 8.187 17.797 L -3.366 17.797 C -4.286 17.797 -5.032 17.05 -5.032 16.129 L -5.032 -12.106 C -5.032 -13.027 -4.286 -13.774 -3.366 -13.774 L 8.268 -13.774 C 15.663 -13.774 20.074 -10.311 20.074 -4.514 C 20.074 -1.233 18.59 1.376 16.018 2.904 " fill="#231f20"/>
<path transform="matrix(1,0,0,-1,622.775,232.5089)" d="M 0 0 L 4.895 10.849 L 9.845 0 Z M 7.334 17.524 C 7.062 18.118 6.47 18.498 5.815 18.498 L 3.998 18.498 C 3.341 18.498 2.749 18.115 2.478 17.519 L -10.326 -10.713 C -10.561 -11.234 -10.516 -11.831 -10.208 -12.307 C -9.899 -12.789 -9.372 -13.072 -8.804 -13.072 L -6.946 -13.072 C -6.289 -13.072 -5.695 -12.69 -5.426 -12.092 L -2.233 -5.035 L 12.134 -5.035 L 15.366 -12.098 C 15.637 -12.692 16.231 -13.072 16.882 -13.072 L 18.739 -13.072 C 19.307 -13.072 19.838 -12.784 20.145 -12.305 C 20.451 -11.829 20.494 -11.229 20.258 -10.709 Z " fill="#231f20"/>
<path transform="matrix(1,0,0,-1,651.4106,214.0109)" d="M 0 0 L -1.698 0 C -2.619 0 -3.368 -.747 -3.368 -1.668 L -3.368 -29.9 C -3.368 -30.825 -2.619 -31.57 -1.698 -31.57 L 0 -31.57 C .921 -31.57 1.672 -30.825 1.672 -29.9 L 1.672 -1.668 C 1.672 -.747 .921 0 0 0 " fill="#231f20"/>
<path transform="matrix(1,0,0,-1,686.6318,214.0109)" d="M 0 0 L -1.658 0 C -2.579 0 -3.324 -.747 -3.324 -1.668 L -3.324 -22.23 L -19.174 -.68 C -19.487 -.25 -19.988 0 -20.519 0 L -22.499 0 C -23.42 0 -24.169 -.747 -24.169 -1.668 L -24.169 -29.9 C -24.169 -30.825 -23.42 -31.57 -22.499 -31.57 L -20.803 -31.57 C -19.881 -31.57 -19.135 -30.825 -19.135 -29.9 L -19.135 -9.348 L -3.324 -30.892 C -3.012 -31.319 -2.512 -31.57 -1.981 -31.57 L 0 -31.57 C .921 -31.57 1.667 -30.825 1.667 -29.9 L 1.667 -1.668 C 1.667 -.747 .921 0 0 0 " fill="#231f20"/>
<path transform="matrix(1,0,0,-1,196.3583,76.119)" d="M 0 0 L -40 0 L -63.761 -55.744 C -65.319 -59.399 -68.909 -61.771 -72.882 -61.771 L -113.565 -61.771 L -126.993 -93.273 C -128.355 -96.469 -125.984 -100.006 -122.479 -100.006 L -41.796 -100.006 C -37.822 -100.006 -34.232 -97.634 -32.674 -93.979 L 4.513 -6.734 C 5.876 -3.537 3.505 0 0 0 " fill="#9d9fa2"/>
<path transform="matrix(1,0,0,-1,320.5004,81.67009)" d="M 0 0 L 0 -88.904 C 0 -91.97 -2.486 -94.455 -5.552 -94.455 L -17.193 -94.455 C -20.259 -94.455 -22.745 -91.97 -22.745 -88.904 L -22.745 0 C -22.745 3.066 -20.259 5.552 -17.193 5.552 L -5.552 5.552 C -2.486 5.552 0 3.066 0 0 " fill="#006cb7"/>
<path transform="matrix(1,0,0,-1,415.4127,133.2361)" d="M 0 0 C -5.646 -9.521 -16.662 -14.779 -27.279 -14.779 C -48.532 -14.779 -58.619 -3.412 -58.619 11.006 C -58.619 26.787 -45.169 38.289 -27.279 38.289 C -14.061 38.289 -4.493 32.607 0 26.478 Z M 23.104 28.727 C 23.104 31.576 22.289 34.388 20.67 36.733 C 10.591 51.336 -8.903 59.4 -25.942 59.4 C -61.1 59.4 -81.58 37.987 -81.58 11.006 C -81.58 -15.436 -61.631 -36.059 -30.327 -36.059 C -14.992 -36.059 -4.847 -29.557 .349 -25.985 C -1.715 -41.497 -12.207 -50.668 -30.922 -50.668 C -41.129 -50.668 -50.912 -47.97 -59.806 -43.551 C -63.071 -41.929 -67.022 -43.292 -68.462 -46.645 L -72.278 -53.972 C -73.536 -56.896 -72.448 -60.37 -69.656 -61.898 C -59.02 -67.708 -44.146 -70.824 -30.922 -70.824 C 1.401 -70.824 22.895 -54.12 23.086 -26.974 Z " fill="#006cb7"/>
<path transform="matrix(1,0,0,-1,302.3074,38.922899)" d="M 0 0 L 13.641 0 C 16.682 0 19.148 -2.465 19.148 -5.507 L 19.148 -16.306 C 19.148 -19.347 16.682 -21.813 13.641 -21.813 L 0 -21.813 C -3.041 -21.813 -5.507 -19.347 -5.507 -16.306 L -5.507 -5.507 C -5.507 -2.465 -3.041 0 0 0 " fill="#006cb7"/>
<path transform="matrix(1,0,0,-1,278.5504,74.058307)" d="M 0 0 C -19.367 -.044 -40.428 -6.477 -55.389 -16.472 C -56.749 -17.381 -57.529 -18.935 -57.529 -20.572 L -57.529 -96.518 C -57.529 -99.584 -55.043 -102.069 -51.977 -102.069 L -39.918 -102.069 C -36.852 -102.069 -34.366 -99.584 -34.366 -96.518 L -34.366 -30.974 C -23.489 -24.723 -10.53 -22.269 .194 -22.008 C 3.217 -21.934 5.638 -19.518 5.638 -16.494 L 5.638 -5.56 C 5.638 -2.46 3.1 .007 0 0 " fill="#006cb7"/>
<path transform="matrix(1,0,0,-1,520.942,107.31979)" d="M 0 0 C 5.641 6.93 14.88 12.373 27.711 12.373 L 27.711 12.372 C 44.98 12.372 58.978 -1.586 58.978 -18.804 C 58.978 -36.023 44.98 -49.981 27.711 -49.981 C 13.464 -49.981 4.108 -41.399 0 -34.829 Z M -22.744 3.953 L -22.744 -88.903 C -22.744 -91.969 -20.259 -94.454 -17.193 -94.454 L -5.551 -94.454 C -2.485 -94.454 0 -91.969 0 -88.903 L 0 -62.135 C 12.158 -69.972 21.746 -71.092 30.687 -71.092 C 60.178 -71.092 81.94 -47.175 81.94 -18.748 C 81.94 4.629 66.734 33.484 26.302 33.484 C 9.609 33.484 -11.001 24.979 -20.317 10.928 C -21.716 8.817 -22.744 6.485 -22.744 3.953 " fill="#006cb7"/>
<path transform="matrix(1,0,0,-1,479.52,81.67009)" d="M 0 0 L 0 -88.904 C 0 -91.97 -2.486 -94.455 -5.552 -94.455 L -17.193 -94.455 C -20.259 -94.455 -22.745 -91.97 -22.745 -88.904 L -22.745 0 C -22.745 3.066 -20.259 5.552 -17.193 5.552 L -5.552 5.552 C -2.486 5.552 0 3.066 0 0 " fill="#006cb7"/>
<path transform="matrix(1,0,0,-1,461.3271,38.922899)" d="M 0 0 L 13.641 0 C 16.682 0 19.148 -2.465 19.148 -5.507 L 19.148 -16.306 C 19.148 -19.347 16.682 -21.813 13.641 -21.813 L 0 -21.813 C -3.041 -21.813 -5.507 -19.347 -5.507 -16.306 L -5.507 -5.507 C -5.507 -2.465 -3.041 0 0 0 " fill="#006cb7"/>
<path transform="matrix(1,0,0,-1,616.9487,152.2294)" d="M 0 0 C 1.654 2.505 5.06 3.342 7.541 1.653 C 15.372 -3.676 25.087 -5.07 32.971 -5.07 C 40.263 -5.07 51.145 -2.2 51.145 5.705 C 51.145 12.067 42.398 13.793 28.402 17.239 C 12.069 21.26 -6.095 26.107 -6.095 47.708 C -6.095 66.666 11.437 78.397 32.645 78.397 C 48.452 78.397 60.232 72.698 64.184 70.59 C 67.042 69.065 67.892 65.347 66.095 62.651 L 60.509 54.272 C 59.007 52.018 56.102 51.18 53.636 52.303 C 50.94 53.531 41.812 57.612 32.754 57.612 C 23.584 57.612 16.322 54.22 16.322 47.817 C 16.322 41.895 24.56 39.447 42.993 34.985 C 58.34 31.27 73.562 24.558 73.562 5.814 C 73.562 -13.883 57.061 -26.182 33.08 -26.182 C 21.644 -26.182 5.903 -22.245 -3.404 -15.431 C -5.913 -13.593 -6.78 -10.269 -5.066 -7.673 Z " fill="#006cb7"/>
<path transform="matrix(1,0,0,-1,75.4493,43.9532)" d="M 0 0 L -37.17 -87.204 C -38.533 -90.4 -36.162 -93.937 -32.657 -93.937 L 48.027 -93.937 C 52 -93.937 55.59 -91.565 57.148 -87.91 L 94.336 -.664 C 95.698 2.532 93.327 6.069 89.823 6.069 L 9.184 6.069 C 5.183 6.069 1.569 3.681 0 0 " fill="#006cb7"/>
</g>
</g>
</g>
</svg>
