<?xml version="1.0" encoding="utf-8"?>
<!-- Generator: Adobe Illustrator 19.0.0, SVG Export Plug-In . SVG Version: 6.00 Build 0)  -->
<svg version="1.1" id="layer" xmlns="http://www.w3.org/2000/svg" xmlns:xlink="http://www.w3.org/1999/xlink" x="0px" y="0px"
	 viewBox="-153 -46 652 652" style="enable-background:new -153 -46 652 652;" xml:space="preserve">
<style type="text/css">
	.st0{fill:#006998;}
	.st1{fill:#FFFFFF;}
</style>
<g>
	<path class="st0" d="M69.4,270.4H74c0.8,0,1.7-0.1,2.6-0.2c1-0.1,1.9-0.4,2.7-0.9c0.8-0.4,1.5-1,2.1-1.8c0.6-0.8,0.8-1.8,0.8-3.1
		c0-1.3-0.2-2.3-0.7-3c-0.5-0.7-1.1-1.3-1.8-1.7c-0.7-0.4-1.5-0.6-2.4-0.7c-0.9-0.1-1.7-0.2-2.4-0.2h-5.7V270.4z M46.4,240.4H77
		c3.5,0,6.9,0.3,10.4,1.1c3.4,0.7,6.5,1.9,9.2,3.7c2.7,1.8,4.9,4.2,6.6,7.1c1.7,3,2.5,6.7,2.5,11.2c0,4.4-1.1,8.2-3.2,11.5
		c-2.1,3.3-5.2,5.9-9.2,7.7l18,28.8H83.9L70.3,286h-0.7v25.4H46.4V240.4z"/>
	<path class="st0" d="M137.6,276.2c-2.5,0-4.6,0.9-6.2,2.6c-1.6,1.7-2.4,3.8-2.4,6.1c0,2.5,0.8,4.6,2.4,6.3c1.6,1.7,3.7,2.6,6.2,2.6
		c2.5,0,4.6-0.9,6.2-2.6c1.6-1.7,2.4-3.8,2.4-6.3c0-2.3-0.8-4.4-2.5-6.1C142.3,277.1,140.2,276.2,137.6,276.2 M167.8,284.8
		c0,4.5-0.8,8.6-2.5,12.2c-1.6,3.5-3.8,6.5-6.6,9c-2.8,2.4-6,4.3-9.6,5.6c-3.6,1.3-7.5,1.9-11.5,1.9c-3.9,0-7.7-0.6-11.4-1.9
		c-3.6-1.3-6.8-3.1-9.6-5.6c-2.7-2.4-4.9-5.4-6.6-9c-1.6-3.6-2.5-7.6-2.5-12.2c0-4.5,0.8-8.5,2.5-12c1.6-3.5,3.8-6.5,6.6-8.9
		c2.7-2.4,5.9-4.2,9.6-5.5c3.6-1.2,7.4-1.9,11.4-1.9c4,0,7.9,0.6,11.5,1.9c3.6,1.2,6.9,3.1,9.6,5.5c2.8,2.4,5,5.4,6.6,8.9
		C167,276.3,167.8,280.3,167.8,284.8"/>
	<path class="st0" d="M202.3,313.4c-4.5,0-8.6-0.7-12.3-2c-3.7-1.3-7-3.2-9.7-5.7c-2.7-2.5-4.9-5.5-6.4-8.9
		c-1.5-3.5-2.3-7.4-2.3-11.7c0-4.3,0.8-8.2,2.4-11.7c1.6-3.5,3.8-6.5,6.6-9c2.8-2.5,6.1-4.4,9.9-5.7c3.8-1.3,7.9-2,12.3-2
		c1.8,0,3.6,0.1,5.5,0.4c1.8,0.3,3.6,0.7,5.3,1.3c1.7,0.5,3.3,1.1,4.7,1.8c1.4,0.7,2.7,1.4,3.7,2.2L210.2,279
		c-0.8-0.9-1.9-1.6-3.2-2.1c-1.3-0.5-2.6-0.7-3.8-0.7c-1.1,0-2.2,0.2-3.3,0.5c-1.1,0.4-2,0.9-2.9,1.7c-0.8,0.8-1.5,1.7-2.1,2.8
		c-0.5,1.1-0.8,2.4-0.8,3.9c0,1.5,0.3,2.8,0.8,3.9c0.5,1.1,1.2,2,2.1,2.7c0.8,0.7,1.8,1.2,2.9,1.6c1.1,0.4,2.2,0.6,3.3,0.6
		c1.3,0,2.6-0.3,3.9-0.8c1.3-0.5,2.3-1.2,3.1-2.1l11.6,16.2c-2.2,1.7-5.1,3.2-8.6,4.4C209.9,312.8,206.2,313.4,202.3,313.4"/>
</g>
<polygon class="st0" points="247.8,288.4 247.8,311.4 224.7,311.4 224.7,235.5 247.8,235.5 247.8,278.8 248.2,278.8 260.7,258.6 
	287.6,258.6 270.5,282.4 287.5,311.4 260.5,311.4 248.2,288.4 "/>
<g>
	<path class="st0" d="M328.5,250.7c-0.8-0.2-1.6-0.3-2.4-0.3c-2.3,0-3.9,0.7-4.8,2.1c-0.9,1.4-1.4,3.2-1.4,5.3v0.7h11.1v16.6h-11.1
		v36.2h-23.2v-36.2h-9v-16.6h9v-1.2c0-3.3,0.4-6.4,1.2-9.4c0.8-3,2.1-5.7,4-8c1.9-2.3,4.4-4.1,7.6-5.5c3.2-1.3,7.2-2,12-2
		c1.5,0,3.3,0.1,5.4,0.4c2,0.2,3.8,0.6,5.2,1.1l-1.5,17.4C330,251.1,329.3,250.9,328.5,250.7"/>
	<path class="st0" d="M362.2,276.2c-2.5,0-4.6,0.9-6.2,2.6c-1.6,1.7-2.4,3.8-2.4,6.1c0,2.5,0.8,4.6,2.4,6.3c1.6,1.7,3.7,2.6,6.2,2.6
		c2.5,0,4.6-0.9,6.2-2.6c1.6-1.7,2.4-3.8,2.4-6.3c0-2.3-0.8-4.4-2.5-6.1C366.9,277.1,364.8,276.2,362.2,276.2 M392.5,284.8
		c0,4.5-0.8,8.6-2.5,12.2c-1.6,3.5-3.8,6.5-6.6,9c-2.8,2.4-6,4.3-9.6,5.6c-3.6,1.3-7.5,1.9-11.5,1.9c-3.9,0-7.7-0.6-11.4-1.9
		c-3.6-1.3-6.8-3.1-9.6-5.6c-2.7-2.4-4.9-5.4-6.6-9c-1.6-3.6-2.5-7.6-2.5-12.2c0-4.5,0.8-8.5,2.5-12c1.6-3.5,3.8-6.5,6.6-8.9
		c2.7-2.4,5.9-4.2,9.6-5.5c3.6-1.2,7.4-1.9,11.4-1.9c4,0,7.9,0.6,11.5,1.9c3.6,1.2,6.9,3.1,9.6,5.5c2.8,2.4,5,5.4,6.6,8.9
		C391.6,276.3,392.5,280.3,392.5,284.8"/>
</g>
<g>
	<path class="st0" d="M397.4,258.6H420v5.8h0.2c1.3-1.9,3.3-3.6,6-5.1c2.6-1.4,5.7-2.2,9.1-2.2c3.7,0,6.7,0.7,9.2,2
		c2.4,1.3,4.4,3.1,5.8,5.2c1.4,2.1,2.4,4.5,3,7.1c0.6,2.6,0.9,5.2,0.9,7.8v32.1h-23.2v-28.1c0-2.7-0.4-4.5-1.2-5.6
		c-0.8-1.1-2.1-1.6-3.8-1.6c-1.5,0-2.8,0.6-3.8,1.9c-1,1.2-1.5,3-1.5,5.4v28.1h-23.2V258.6z"/>
</g>
<rect x="-131.3" y="204.8" class="st0" width="142.1" height="142.2"/>
<polygon class="st1" points="-65.6,240.4 -74.5,240.4 -117.1,311.4 -81.6,311.4 -65.6,284.7 "/>
<polygon class="st1" points="-46,240.4 -54.9,240.4 -54.9,284.7 -38.9,311.4 -3.4,311.4 "/>
<g>
	<path class="st0" d="M458.3,250.9h1.7c0.3,0,0.7,0,1,0c0.3,0,0.6-0.1,0.9-0.2c0.3-0.1,0.4-0.3,0.6-0.5c0.1-0.2,0.2-0.5,0.2-0.9
		c0-0.3-0.1-0.6-0.2-0.8c-0.1-0.2-0.3-0.4-0.5-0.5c-0.2-0.1-0.4-0.2-0.7-0.2c-0.3,0-0.5,0-0.8,0h-2.1V250.9z M457,246.6h3.6
		c1.2,0,2.1,0.2,2.6,0.7c0.6,0.4,0.9,1.2,0.9,2.2c0,0.9-0.3,1.5-0.8,1.9c-0.5,0.4-1.1,0.7-1.8,0.7l2.8,4.3h-1.5l-2.7-4.2h-1.8v4.2
		H457V246.6z M452.9,251.5c0,1,0.2,2,0.6,2.8c0.4,0.9,0.9,1.6,1.5,2.3c0.7,0.6,1.4,1.2,2.3,1.5c0.9,0.4,1.8,0.6,2.8,0.6
		c1,0,1.9-0.2,2.8-0.6c0.9-0.4,1.6-0.9,2.3-1.5c0.7-0.7,1.2-1.4,1.5-2.3c0.4-0.9,0.6-1.9,0.6-2.9c0-1-0.2-2-0.6-2.9
		c-0.4-0.9-0.9-1.7-1.5-2.3c-0.6-0.7-1.4-1.2-2.3-1.5c-0.9-0.4-1.8-0.5-2.8-0.5c-1,0-1.9,0.2-2.8,0.6c-0.9,0.4-1.6,0.9-2.3,1.5
		c-0.6,0.6-1.2,1.4-1.5,2.3C453.1,249.5,452.9,250.4,452.9,251.5 M451.6,251.5c0-1.2,0.2-2.3,0.7-3.4c0.5-1,1.1-1.9,1.9-2.7
		c0.8-0.8,1.7-1.4,2.7-1.8c1-0.4,2.1-0.6,3.3-0.6c1.2,0,2.3,0.2,3.3,0.6c1,0.4,2,1,2.7,1.8c0.8,0.8,1.4,1.6,1.8,2.7
		c0.5,1,0.7,2.1,0.7,3.3c0,1.2-0.2,2.3-0.7,3.4c-0.5,1-1.1,1.9-1.8,2.7c-0.8,0.8-1.7,1.4-2.7,1.8c-1,0.4-2.1,0.6-3.3,0.6
		c-1.2,0-2.3-0.2-3.3-0.6c-1-0.4-1.9-1-2.7-1.8c-0.8-0.7-1.4-1.6-1.9-2.7C451.8,253.8,451.6,252.7,451.6,251.5"/>
</g>
</svg>
